<?xml version="1.0" encoding="UTF-8" standalone="no"?>
<!-- Uploaded to: SVG Repo, www.svgrepo.com, Generator: SVG Repo Mixer Tools -->

<svg
   fill="#000000"
   version="1.1"
   id="Layer_1"
   viewBox="0 0 512 512"
   xml:space="preserve"
   sodipodi:docname="pc-logo.svg"
   inkscape:export-filename="pc-logo-256x256.png"
   inkscape:export-xdpi="48"
   inkscape:export-ydpi="48"
   inkscape:version="1.4 (86a8ad7, 2024-10-11)"
   xmlns:inkscape="http://www.inkscape.org/namespaces/inkscape"
   xmlns:sodipodi="http://sodipodi.sourceforge.net/DTD/sodipodi-0.dtd"
   xmlns="http://www.w3.org/2000/svg"
   xmlns:svg="http://www.w3.org/2000/svg"><defs
   id="defs26"><rect
     x="382.69654"
     y="32.325865"
     width="433.79226"
     height="238.7943"
     id="rect11" /><rect
     x="347.24236"
     y="31.283096"
     width="44.839104"
     height="14.598778"
     id="rect9" /><rect
     x="360.79837"
     y="31.283096"
     width="118.87576"
     height="134.51731"
     id="rect7" /></defs><sodipodi:namedview
   id="namedview26"
   pagecolor="#ffffff"
   bordercolor="#000000"
   borderopacity="0.25"
   inkscape:showpageshadow="2"
   inkscape:pageopacity="0.0"
   inkscape:pagecheckerboard="0"
   inkscape:deskcolor="#d1d1d1"
   inkscape:zoom="1.3562087"
   inkscape:cx="318.53504"
   inkscape:cy="275.40009"
   inkscape:window-width="1920"
   inkscape:window-height="1009"
   inkscape:window-x="1072"
   inkscape:window-y="1095"
   inkscape:window-maximized="1"
   inkscape:current-layer="layer2" />
<g
   id="g2">
	<g
   id="g1">
		<path
   id="polygon1"
   d="m 0,205.91211 v 200.34961 h 33.390625 v 33.39062 h 33.392578 v 33.39063 h 33.390627 v 33.39258 h 187.42773 c -13.51204,-9.97915 -14.7771,-15.21174 -15.35547,-29.8086 -0.24017,-3.9648 -0.59275,-7.91404 -1.28711,-11.83007 -0.97631,-7.49897 -1.24889,-15.04291 -1.21289,-22.60352 0.18426,-7.84027 0.9583,-15.64432 1.06446,-23.48633 0.15211,-8.25308 0.35358,-16.50562 0.73047,-24.75195 0.33504,-7.60573 0.71833,-15.20938 0.76953,-22.82422 0.0633,-4.49334 -0.38964,-8.96761 -0.76367,-13.44141 -0.69406,-8.68038 -1.09865,-17.37104 -0.81446,-26.08203 0.0965,-8.41574 0.24039,-16.83164 0.61914,-25.24023 0.46749,-9.76221 0.89108,-19.56991 2.62696,-29.20703 0.10431,-0.51352 0.20849,-1.02744 0.3125,-1.54102 -0.88503,-5.26857 -1.72924,-10.55096 -1.82227,-15.90625 -0.14275,-6.72512 -0.36263,-13.44914 -0.42383,-20.17578 0.0408,-7.20646 0.41343,-14.40393 1.36914,-21.55078 -0.1311,-4.03159 -0.39147,-8.05634 -0.73828,-12.07422 z m 338.34961,19.61133 c -0.14348,0.69927 0.8243,2.14198 1.19727,2.67773 -0.19523,-0.83421 -0.44552,-1.65174 -0.83985,-2.41015 -0.11874,-0.0892 -0.32752,-0.41308 -0.35742,-0.26758 z m -63.72461,52.1914 c 0.0266,0.26557 0.0161,0.53457 0.0723,0.79688 0.033,0.15407 -0.0145,-0.31525 -0.0215,-0.47266 -0.0182,-0.10781 -0.0325,-0.2164 -0.0508,-0.32422 z" />
	</g>
</g>
<g
   id="g4">
	<g
   id="g3">
		<rect
   x="66.783"
   y="105.739"
   width="33.391"
   height="33.391"
   id="rect2" />
	</g>
</g>
<g
   id="g6">
	<g
   id="g5">
		<rect
   x="100.174"
   y="139.13"
   width="33.391"
   height="33.391"
   id="rect4" />
	</g>
</g>
<g
   id="g8">
	<g
   id="g7">
		<rect
   x="100.174"
   y="72.348"
   width="33.391"
   height="33.391"
   id="rect6" />
	</g>
</g>
<g
   id="g10">
	<g
   id="g9">
		<rect
   x="166.957"
   y="38.957"
   width="33.391"
   height="33.391"
   id="rect8" />
	</g>
</g>
<g
   id="g12">
	<g
   id="g11">
		<rect
   x="200.348"
   y="72.348"
   width="33.391"
   height="33.391"
   id="rect10" />
	</g>
</g>
<g
   id="g14">
	<g
   id="g13">
		<rect
   x="166.957"
   y="105.739"
   width="33.391"
   height="33.391"
   id="rect12" />
	</g>
</g>
<g
   id="g16">
	<g
   id="g15">
		<rect
   x="200.348"
   y="139.13"
   width="33.391"
   height="33.391"
   id="rect14" />
	</g>
</g>




<g
   id="g26">
	<g
   id="g25">
		<rect
   x="200.348"
   y="5.565"
   width="33.391"
   height="33.391"
   id="rect24" />
	</g>
</g>
<g
   inkscape:groupmode="layer"
   id="layer1"
   inkscape:label="new"><path
     id="path1"
     style="display:inline;stroke-width:0.451946"
     d="m 135.73438,205.64648 a 13.909008,15.037512 0 0 0 -13.90821,15.03711 V 386.0957 a 111.27207,120.30009 0 0 0 111.27149,120.30078 h 83.45312 a 111.32769,120.36025 0 0 0 107.79492,-90.3164 83.454041,90.225067 0 1 0 3.47852,-180.35938 v -15.03711 a 13.909008,15.037512 0 0 0 -13.91016,-15.03711 z m 13.9082,30.07422 h 250.36328 v 150.375 a 83.454041,90.225067 0 0 1 -83.45508,90.22461 H 233.09766 A 83.454041,90.225067 0 0 1 149.64258,386.0957 Z m 278.18164,30.07422 a 55.636345,60.150391 0 1 1 0,120.30078 z" /><path
     style="fill:#000000;stroke-width:1.04277"
     d="m 271.23,461.16497 c -1.00078,-11.09644 -0.94644,-21.54925 0.27599,-53.09163 1.11678,-28.81617 1.23886,-42.42275 0.45841,-51.09572 -1.16957,-12.99741 -0.33118,-56.94325 1.32963,-69.69453 1.39336,-10.69785 1.4069,-11.08545 0.65565,-18.76985 -0.36445,-3.72791 -0.91763,-12.29165 -1.22929,-19.03055 l -0.56665,-12.25255 h 63.61356 63.61355 l -0.0137,78.98982 c -0.0127,72.93126 -0.16256,79.71107 -1.95453,88.39324 -6.14126,29.75464 -25.78864,54.10534 -52.29262,64.81077 -11.69325,4.72312 -18.37951,5.52016 -46.47054,5.5396 l -26.17334,0.0181 z"
     id="path5" /><path
     style="fill:#000000"
     d="m 271.12016,230.45214 c 11.12288,0 22.24576,0 33.36864,0 4.86626,0 9.78142,0.68819 14.59877,0 1.08813,-0.15545 2.06196,-0.77618 3.12831,-1.04277 2.02328,-0.50582 4.17108,0 6.25662,0 5.21385,0 10.4277,0 15.64155,0 3.95197,0 8.57538,-0.56255 12.51324,0 2.83749,0.40535 5.50467,1.68018 8.34216,2.08554 4.99054,0.71293 10.63206,0 15.64155,0 6.25662,0 12.51323,0 18.76985,0 0.014,0 5.15816,-0.16707 5.21385,0 1.56416,4.69246 -1.56415,10.94908 0,15.64155 0.70362,2.11085 3.88814,2.84536 5.21385,4.17107 0.64891,0.64891 -0.44663,19.06888 0,20.8554 0.11922,0.47689 0.88732,0.57643 1.04277,1.04277 1.02835,3.08503 -0.64067,7.22435 0,10.4277 0.15243,0.76214 0.89034,1.3234 1.04277,2.08554 1.15382,5.76908 -1.85199,13.21388 0,18.76986 1.90072,5.70215 1.16289,11.91263 0,17.72708 -1.09363,5.46818 0.30628,11.28814 -1.04277,16.68432 -0.60981,2.43924 -4.64728,6.16625 -5.21385,7.29939 -1.34402,2.68804 0.78068,11.47608 0,14.59878 -0.1885,0.75403 -0.79698,1.34819 -1.04277,2.08554 -1.01149,3.03449 0.52629,7.26999 0,10.4277 -0.5351,3.2106 -1.31962,6.32127 -2.08554,9.38493 -1.30481,5.21926 -0.20716,11.68459 1.04277,16.68431 0.97779,3.91117 0,9.54259 0,13.55601 0,0.73253 -0.51707,4.69677 0,5.21385 0.24579,0.24578 0.79699,-0.24578 1.04277,0 0.4181,0.4181 -0.68275,11.11046 -1.04277,11.47047 -0.5892,0.5892 -3.39429,1.30875 -4.17108,2.08554 -2.22238,2.22238 -0.99332,5.11495 -2.08554,7.29939 -0.72301,1.44603 -2.75528,6.59149 -4.17108,7.29939 -2.82882,1.41441 -6.59161,3.11886 -9.38492,5.21385 -2.30225,1.72668 -3.86135,4.65977 -6.25662,6.25662 -0.6467,0.43113 -1.65441,0.39607 -2.08554,1.04277 -1.28194,1.92291 0.74615,2.308 -3.12831,5.21384 -2.24189,1.68142 -4.96769,2.61661 -7.29939,4.17108 -1.87554,1.25036 -1.1238,3.16883 -3.12831,4.17108 -0.93268,0.46634 -2.13905,-0.32975 -3.12831,0 -1.66832,0.55611 -3.23018,2.73158 -5.21385,3.12831 -1.02252,0.20451 -2.10579,-0.2045 -3.12831,0 -1.98367,0.39674 -3.54553,2.57221 -5.21385,3.12831 -1.31901,0.43967 -2.85207,-0.43967 -4.17108,0 -1.23521,0.41174 -1.95575,2.54203 -3.12831,3.12831 -0.69551,0.34776 -14.86699,0.78315 -16.68432,1.04277 -7.52669,1.07524 -3.64426,0.86717 -7.29938,2.08554 -1.23609,0.41203 -3.91413,-0.12997 -5.21385,0 -7.80211,0.78021 -15.7216,0.24062 -22.94094,1.04277 -10.54899,1.17211 -5.10365,1.04277 -11.47047,1.04277 -2.04845,0 -8.13287,1.25206 -9.38493,0 -0.54959,-0.54959 -0.32112,-1.79688 -1.04277,-2.08554 -2.57066,-1.02826 -16.06446,-0.11299 -18.76985,-4.17108 -4.23865,-6.35796 -10.53098,-16.63719 -13.55601,-23.9837 -1.09135,-2.65041 -1.2306,-5.60634 -2.08554,-8.34216 -7.8725,-20.99333 1.19946,4.15895 -5.21385,-16.68432 -0.55048,-1.78906 -1.71845,-3.37837 -2.08554,-5.21385 -1.74097,-8.70484 1.25771,-18.30805 0,-27.11202 -1.11461,-7.80227 -4.35587,-14.96182 -3.12831,-22.94093 2.66484,-17.32147 1.81002,4.62453 3.12831,-12.51324 0.64705,-8.41161 1.24144,-16.58551 2.08554,-25.02648 0.35397,-3.5397 -1.04277,-6.80794 -1.04277,-10.4277 0,-9.39008 -1.3297,-19.88968 0,-29.19755 0.59986,-4.19901 1.6135,-8.26491 2.08554,-12.51324 0.32337,-2.91032 -0.71173,-7.79595 1.04277,-10.4277 2.04958,-3.07437 5.72945,-4.68668 8.34216,-7.29939 1.40408,-1.40408 5.55365,-7.6275 6.25662,-9.38493 0.53225,-1.33064 0.0294,-3.15769 1.04277,-4.17108 1.19909,-1.19909 3.99216,-1.27108 5.21385,-2.08554 0.19269,-0.12846 0.22803,-5.03451 1.04276,-6.25661 0.0647,-2.93617 2.35108,-0.26554 3.12831,-1.04277 0.24579,-0.24579 -0.24578,-0.79699 0,-1.04277 0.32942,-0.32942 5.57542,-4.80513 6.25662,-5.21385 2.51024,-1.50614 3.10361,-0.39735 5.21385,-2.08554 2.88526,-2.30821 5.56144,-4.86626 8.34216,-7.29939 z"
     id="path6" /></g><g
   inkscape:groupmode="layer"
   id="layer2"
   inkscape:label="Layer 1"><text
     xml:space="preserve"
     id="text10"
     style="font-style:normal;font-variant:normal;font-weight:normal;font-stretch:normal;font-size:192px;font-family:Constantia;-inkscape-font-specification:Constantia;text-align:start;letter-spacing:0px;writing-mode:lr-tb;direction:ltr;white-space:pre;shape-inside:url(#rect11);display:inline;fill:#000000"
     transform="matrix(0,-1.1767407,1.8273215,0,30.918566,632.66125)"><tspan
       x="382.69727"
       y="200.51367"
       id="tspan1">~</tspan></text></g></svg>
